# xmcd
#
# Track frame offsets:
#	151
#	22694
#	42111
#	70118
#	96055
#	119142
#
# Disc length: 1828 seconds
#
# Revision: 1
# Processed by: cddbd v1.4PL0 Copyright (c) Steve Scherf et al.
# Submitted via: audiograbber 1.82.01
#
DISCID=44072206
DTITLE=Tony Kiwan - Sawani El Dahab
DYEAR=1900
DGENRE=
TTITLE0=Baddi Yaki
TTITLE1=Sawani El Dahab
TTITLE2=Khalik Mnishar Bil Bayt
TTITLE3=Bey3edouni
TTITLE4=Ya Tayebin
TTITLE5=Min Dounak
EXTD=
EXTT0=
EXTT1=
EXTT2=
EXTT3=
EXTT4=
EXTT5=
PLAYORDER=
